<?xml version="1.0" standalone="no"?>
<!DOCTYPE svg PUBLIC "-//W3C//DTD SVG 20010904//EN"
 "http://www.w3.org/TR/2001/REC-SVG-20010904/DTD/svg10.dtd">
<svg version="1.0" xmlns="http://www.w3.org/2000/svg"
 width="413.000000pt" height="317.000000pt" viewBox="0 0 413.000000 317.000000"
 preserveAspectRatio="xMidYMid meet">

<g transform="translate(0.000000,317.000000) scale(0.100000,-0.100000)"
fill="#000000" stroke="none">
<path d="M1347 3004 c-257 -57 -457 -262 -505 -517 -13 -73 -20 -88 -37 -92
-57 -13 -523 -97 -609 -110 -102 -15 -120 -25 -110 -60 8 -24 13 -31 139 -182
55 -65 190 -239 300 -386 110 -146 208 -269 219 -273 10 -3 22 -2 26 3 5 4 13
122 19 262 7 189 13 256 23 262 7 5 45 9 84 9 l71 0 55 -82 c187 -282 548
-633 941 -916 l87 -64 137 103 c394 296 745 646 903 902 l48 78 41 -53 c23
-29 47 -61 53 -70 12 -16 14 -16 38 1 l24 19 -62 81 -62 81 34 83 c46 110 70
232 63 317 -25 303 -216 528 -511 602 -93 24 -221 21 -316 -8 -131 -38 -266
-133 -348 -244 l-45 -60 -33 48 c-73 109 -223 217 -354 256 -80 24 -230 29
-313 10z m305 -104 c166 -51 318 -209 377 -392 7 -21 16 -38 20 -38 4 0 15 24
25 53 67 189 208 329 385 381 196 58 408 3 551 -143 113 -115 164 -241 163
-401 0 -76 -5 -111 -27 -175 -14 -44 -32 -90 -39 -102 l-12 -23 -44 29 c-24
16 -61 37 -83 47 -34 15 -41 16 -49 3 -18 -29 -8 -46 40 -68 27 -13 61 -34 77
-46 l29 -23 -25 -46 c-72 -134 -315 -417 -514 -598 -104 -96 -315 -269 -439
-362 l-37 -29 -78 59 c-270 204 -650 557 -763 709 -44 58 -45 61 -27 78 10 9
18 21 18 26 0 15 -66 52 -82 46 -10 -4 -25 10 -46 42 -36 56 -110 209 -114
237 -2 14 29 44 117 113 100 78 120 98 120 120 0 20 -6 28 -26 34 -25 6 -177
-4 -227 -16 -22 -5 -23 -3 -17 32 39 230 213 416 438 468 79 18 203 12 289
-15z m-572 -534 c0 -6 -141 -118 -145 -114 -2 1 -6 24 -10 50 l-7 46 54 10
c58 10 108 14 108 8z m-240 -111 c12 -71 12 -77 -6 -90 -10 -9 -30 -13 -44
-11 -14 3 -143 19 -288 37 -144 18 -261 33 -260 34 2 2 120 24 263 50 143 26
262 49 264 51 2 2 16 4 31 4 26 0 28 -3 40 -75z m-320 -208 c91 -36 177 -71
192 -78 l28 -12 -6 -181 c-3 -100 -7 -200 -10 -224 l-5 -42 -161 212 c-180
238 -299 388 -323 408 -53 44 15 24 285 -83z m130 63 c46 -6 89 -10 95 -10 28
-1 35 -16 24 -49 -6 -18 -16 -30 -23 -27 -6 2 -63 26 -126 51 -128 52 -141 59
-90 51 19 -3 73 -11 120 -16z m226 -86 c19 -15 34 -30 34 -35 0 -5 -22 -9 -49
-9 l-49 0 11 35 c6 19 12 35 14 35 3 0 20 -12 39 -26z"/>
<path d="M1896 2332 c-2 -4 3 -17 12 -29 14 -18 30 -22 97 -25 78 -3 80 -2 83
21 2 13 -2 28 -10 32 -16 11 -175 12 -182 1z"/>
<path d="M1812 2304 c-38 -26 -65 -91 -58 -138 10 -61 17 -70 49 -55 22 10 26
17 21 38 -4 14 -7 28 -6 31 0 31 6 45 28 66 24 25 24 27 9 50 -18 28 -15 28
-43 8z"/>
<path d="M2134 2283 c-6 -20 -3 -30 11 -37 10 -6 38 -29 62 -50 39 -35 46 -38
68 -28 14 6 25 15 25 20 0 11 -78 84 -112 105 -37 23 -47 21 -54 -10z"/>
<path d="M2620 2161 l0 -31 83 0 c45 0 98 -4 118 -9 34 -8 38 -6 48 17 8 17 9
28 2 35 -6 6 -65 13 -131 15 l-120 4 0 -31z"/>
<path d="M2490 2158 c-87 -22 -96 -29 -81 -57 14 -25 18 -25 95 -5 74 21 77
23 68 56 l-7 26 -75 -20z"/>
<path d="M2292 2128 c-13 -6 -21 -17 -18 -24 3 -9 -18 -18 -65 -31 -70 -18
-81 -29 -60 -62 8 -12 18 -13 58 -4 26 7 56 15 66 18 27 11 22 -50 -9 -103
l-26 -44 21 -22 c22 -21 22 -21 38 -1 30 40 53 101 53 146 0 33 5 49 15 53 13
5 14 10 5 27 -11 19 -47 60 -52 58 -2 0 -13 -5 -26 -11z"/>
<path d="M1831 2071 l-23 -18 27 -21 c40 -31 118 -52 197 -52 58 0 68 3 68 18
0 32 -15 39 -85 44 -57 4 -110 20 -155 45 -3 1 -16 -6 -29 -16z"/>
<path d="M2110 1803 c-47 -23 -89 -44 -94 -46 -5 -2 -6 -15 -2 -31 5 -22 11
-26 29 -21 33 10 159 71 182 88 19 15 19 16 1 36 -11 12 -22 20 -25 19 -3 -1
-44 -21 -91 -45z"/>
<path d="M1231 1803 c-6 -13 -11 -26 -11 -28 0 -13 215 -103 224 -94 3 2 7 16
11 30 6 23 3 27 -22 33 -15 4 -65 25 -109 46 l-82 38 -11 -25z"/>
<path d="M1885 1725 c-27 -7 -67 -14 -87 -14 -36 -1 -38 -3 -38 -34 l0 -34 63
9 c67 9 157 28 157 34 0 1 -5 15 -12 29 -12 28 -13 28 -83 10z"/>
<path d="M1496 1694 c-4 -14 -6 -28 -4 -29 7 -6 202 -24 210 -19 4 3 8 16 8
29 0 29 -8 31 -126 40 l-82 6 -6 -27z"/>
<path d="M3283 1772 c-22 -17 -22 -18 -6 -82 17 -72 33 -96 57 -87 20 8 20 48
0 118 -20 68 -24 72 -51 51z"/>
<path d="M2878 676 c-82 -29 -119 -72 -137 -158 -20 -89 17 -187 87 -235 41
-27 125 -38 179 -24 103 28 158 103 157 216 -1 81 -17 120 -69 163 -62 50
-143 64 -217 38z m151 -17 l31 -11 0 -178 0 -178 -31 -11 c-42 -15 -114 -14
-156 1 l-34 12 2 178 1 177 27 10 c36 13 122 13 160 0z m-200 -191 l2 -162
-22 20 c-32 28 -59 93 -59 144 0 48 38 144 61 153 8 3 15 6 15 6 1 1 2 -72 3
-161z m311 66 c21 -72 -6 -193 -46 -208 -12 -4 -14 19 -14 146 l0 151 24 -22
c13 -12 29 -42 36 -67z"/>
<path d="M153 666 c15 -12 17 -34 17 -200 0 -159 -2 -186 -15 -186 -8 0 -15
-4 -15 -10 0 -6 53 -10 140 -10 l140 0 -2 48 c-1 43 -2 44 -5 10 l-4 -38 -75
0 -75 0 2 190 c1 179 2 190 20 190 11 0 19 5 19 10 0 6 -34 10 -82 10 -71 -1
-81 -3 -65 -14z m97 -196 l1 -190 -31 0 -30 0 0 190 0 190 29 0 29 0 2 -190z"/>
<path d="M560 670 c0 -5 7 -10 15 -10 8 0 15 -3 15 -7 0 -5 -26 -89 -58 -188
-50 -157 -60 -180 -80 -183 -42 -6 -22 -22 28 -22 28 0 50 5 50 10 0 6 -9 10
-20 10 -24 0 -24 -4 -4 53 l16 47 87 0 87 0 16 -50 c16 -48 15 -50 -3 -50 -10
0 -19 -4 -19 -10 0 -6 33 -10 80 -10 47 0 80 4 80 10 0 6 -6 10 -13 10 -7 0
-32 64 -61 163 -27 89 -56 179 -64 200 l-14 37 -69 0 c-39 0 -69 -4 -69 -10z
m133 -27 c3 -10 28 -92 56 -182 28 -90 51 -168 51 -173 0 -5 -12 -8 -27 -6
-24 3 -29 11 -59 108 -17 58 -43 142 -57 188 l-25 82 28 0 c18 0 30 -6 33 -17z
m-9 -220 c7 -23 6 -23 -73 -23 -45 0 -81 1 -81 3 0 4 68 207 76 227 5 13 31
-57 78 -207z"/>
<path d="M887 673 c-11 -10 -8 -73 3 -73 6 0 10 14 10 30 l0 30 85 0 85 0 -95
-190 c-52 -104 -95 -194 -95 -200 0 -6 56 -10 150 -10 l150 0 -2 48 c-1 43 -2
44 -5 10 l-4 -38 -90 0 c-49 0 -89 3 -89 7 0 3 43 89 95 190 52 102 95 189 95
194 0 10 -283 13 -293 2z m176 -203 c-97 -187 -98 -190 -130 -190 -18 0 -33 2
-33 5 0 2 43 88 96 190 l97 185 34 0 34 0 -98 -190z"/>
<path d="M1220 670 c0 -5 7 -10 15 -10 13 0 15 -22 15 -138 0 -126 2 -143 23
-182 26 -50 90 -90 141 -90 46 0 117 40 143 79 21 31 23 47 25 167 1 170 0
157 23 169 17 8 13 10 -22 13 -23 2 -64 1 -90 -1 -37 -3 -43 -5 -27 -11 21 -7
22 -14 23 -191 2 -174 1 -184 -18 -194 -22 -12 -64 -14 -98 -5 -23 6 -23 8
-23 195 0 161 2 189 15 189 8 0 15 5 15 10 0 6 -33 10 -80 10 -47 0 -80 -4
-80 -10z m110 -190 c0 -99 -2 -180 -5 -180 -2 0 -16 17 -30 37 -24 36 -25 44
-25 180 l0 143 30 0 30 0 0 -180z m239 60 c2 -136 -8 -186 -44 -220 l-26 -24
1 182 2 182 33 0 33 0 1 -120z"/>
<path d="M1683 666 c15 -12 17 -34 17 -200 0 -159 -2 -186 -15 -186 -8 0 -15
-4 -15 -10 0 -6 53 -10 140 -10 l140 0 -2 48 c-1 43 -2 44 -5 10 l-4 -38 -75
0 -75 0 2 190 c1 179 2 190 20 190 11 0 19 5 19 10 0 6 -34 10 -82 10 -71 -1
-81 -3 -65 -14z m97 -196 l1 -190 -31 0 -30 0 0 190 0 190 29 0 29 0 2 -190z"/>
<path d="M1995 670 c3 -5 13 -10 21 -10 12 0 14 -31 14 -190 0 -183 -1 -190
-20 -190 -11 0 -20 -4 -20 -10 0 -6 35 -10 85 -10 50 0 85 4 85 10 0 6 -9 10
-20 10 -19 0 -20 7 -20 190 0 159 2 190 14 190 8 0 18 5 21 10 4 6 -25 10 -80
10 -55 0 -84 -4 -80 -10z m105 -200 l0 -190 -25 0 -25 0 0 190 0 190 25 0 25
0 0 -190z"/>
<path d="M2380 635 c0 -25 5 -45 10 -45 6 0 10 16 10 35 l0 35 50 0 50 0 0
-190 c0 -183 -1 -190 -20 -190 -11 0 -20 -4 -20 -10 0 -6 35 -10 85 -10 50 0
85 4 85 10 0 6 -9 10 -20 10 -20 0 -21 5 -20 190 l2 190 54 0 c30 0 53 -3 53
-7 -1 -5 0 -21 1 -38 l2 -30 8 27 c4 15 6 37 3 48 -5 19 -13 20 -169 20 l-164
0 0 -45z m199 -165 l2 -190 -30 0 -31 0 0 190 0 190 29 0 29 0 1 -190z"/>
<path d="M3210 670 c0 -5 7 -10 15 -10 13 0 15 -22 15 -138 0 -125 2 -143 23
-183 26 -49 89 -89 142 -89 45 0 116 40 142 79 21 31 23 47 25 167 1 170 0
157 23 169 16 8 11 10 -28 13 -26 2 -67 1 -90 -1 -33 -3 -38 -5 -21 -11 21 -7
22 -14 23 -191 2 -174 1 -184 -18 -194 -22 -12 -64 -14 -98 -5 -23 6 -23 8
-23 195 0 161 2 189 15 189 8 0 15 5 15 10 0 6 -33 10 -80 10 -47 0 -80 -4
-80 -10z m110 -190 c0 -99 -2 -180 -5 -180 -2 0 -16 17 -30 37 -24 36 -25 44
-25 180 l0 143 30 0 30 0 0 -180z m239 60 c2 -136 -8 -186 -44 -220 l-26 -24
1 182 2 182 33 0 33 0 1 -120z"/>
<path d="M3664 671 c4 -6 13 -11 20 -11 11 0 14 -40 15 -190 2 -185 2 -190
-18 -190 -12 0 -21 -4 -21 -10 0 -6 34 -10 83 -10 70 1 80 3 65 14 -15 11 -18
29 -18 95 l0 81 45 0 44 0 3 -92 3 -93 63 -3 c38 -2 62 1 62 8 0 5 -7 10 -15
10 -12 0 -15 14 -15 65 0 57 -3 69 -26 92 l-25 25 22 24 c16 17 24 40 27 76 3
49 1 55 -28 83 -31 30 -32 30 -162 33 -91 3 -128 0 -124 -7z m106 -201 l0
-190 -30 0 -31 0 1 190 2 190 29 0 29 0 0 -190z m110 95 l0 -95 -45 0 -45 0 0
95 0 95 45 0 45 0 0 -95z m70 55 c17 -32 12 -94 -10 -118 -12 -12 -25 -22 -30
-22 -6 0 -10 39 -10 90 0 87 1 90 20 80 11 -6 24 -19 30 -30z m-7 -198 c13
-11 17 -31 17 -79 l0 -63 -30 0 -30 0 0 86 c0 89 2 91 43 56z"/>
</g>
</svg>
